<svg width="24" height="24" viewBox="0 0 24 24" fill="none" xmlns="http://www.w3.org/2000/svg">
<path d="M12.701 18.8618H9.6206V9.6206H12.701V11.1608C13.3576 10.3254 14.3533 9.82743 15.4156 9.80311C17.3259 9.81372 18.8673 11.3682 18.8618 13.2786V18.8618H15.7814V13.6636C15.6582 12.8031 14.9202 12.1647 14.051 12.1665C13.6708 12.1786 13.3119 12.345 13.0571 12.6275C12.8024 12.9101 12.6738 13.2842 12.701 13.6636V18.8618ZM8.0804 18.8618H5V9.6206H8.0804V18.8618ZM6.5402 8.0804C5.68957 8.0804 5 7.39083 5 6.5402C5 5.68957 5.68957 5 6.5402 5C7.39083 5 8.0804 5.68957 8.0804 6.5402C8.0804 6.94869 7.91813 7.34044 7.62928 7.62928C7.34044 7.91813 6.94869 8.0804 6.5402 8.0804Z" fill="#1A1B1F"/>
</svg>
