<svg width="24" height="24" viewBox="0 0 24 24" fill="none" xmlns="http://www.w3.org/2000/svg">
<path d="M19.402 7.50216C18.8231 7.75328 18.211 7.91929 17.5846 7.99502C18.2454 7.60021 18.7407 6.97909 18.9784 6.24689C18.3574 6.61659 17.6776 6.87706 16.9685 7.01699C16.4945 6.50301 15.8634 6.16087 15.174 6.04424C14.4846 5.92762 13.7761 6.04309 13.1594 6.37257C12.5427 6.70204 12.0529 7.22687 11.7666 7.86475C11.4804 8.50262 11.414 9.21747 11.5778 9.89717C10.3221 9.83365 9.09378 9.50669 7.97268 8.93752C6.85158 8.36834 5.86275 7.56969 5.07044 6.59344C4.79254 7.07873 4.64651 7.62832 4.64688 8.18755C4.6459 8.70689 4.77335 9.21841 5.01788 9.67658C5.26242 10.1348 5.61645 10.5253 6.04846 10.8136C5.54634 10.7999 5.05495 10.6652 4.61608 10.4208V10.4593C4.61984 11.187 4.87483 11.891 5.33791 12.4523C5.80098 13.0136 6.44372 13.3978 7.15741 13.5397C6.88268 13.6233 6.59745 13.6674 6.3103 13.6707C6.11153 13.6683 5.91325 13.6503 5.71732 13.6167C5.92056 14.2427 6.31386 14.7897 6.8425 15.1817C7.37113 15.5737 8.00881 15.7912 8.6668 15.8038C7.55571 16.6781 6.18391 17.1552 4.7701 17.1592C4.51268 17.16 4.25547 17.1446 4 17.113C5.4435 18.045 7.12569 18.5398 8.84393 18.5377C10.0296 18.55 11.2059 18.3259 12.3041 17.8785C13.4022 17.4312 14.4002 16.7694 15.2398 15.932C16.0793 15.0947 16.7436 14.0984 17.1938 13.0014C17.644 11.9044 17.8711 10.7287 17.8618 9.54292C17.8618 9.412 17.8618 9.27339 17.8618 9.13477C18.4661 8.68411 18.9873 8.13166 19.402 7.50216V7.50216Z" fill="#1A1B1F"/>
</svg>
