<svg viewBox="0 0 167 61" xmlns="http://www.w3.org/2000/svg"><g fill="#0145b2"><path d="m48.255 25.719a18.207 18.207 0 0 0 -3.746-7.081l-2.409 6.008zm-12.894 22.436a18.331 18.331 0 0 0 7.094-3.739l-6.02-2.406zm9.151-5.792a18.236 18.236 0 0 0 3.78-7.215l-6.182 1.192zm-7.392-1.541 6.316 2.522-2.517-6.313zm3.789-16.859 2.527-6.3-6.326 2.52zm.93 2.017v9.032l6.77-1.306a18.366 18.366 0 0 0 -.026-6.546zm-25.215-7.338a18.24 18.24 0 0 0 -3.78 7.216l6.182-1.193zm42.636 11.858a28.63 28.63 0 1 0 0 .012zm1.361 0a30.061 30.061 0 1 1 -30.064-30 30.03 30.03 0 0 1 30.061 30zm-26.846-18a18.472 18.472 0 0 0 -6.561.026l-1.177 6.731h9.05zm-9.759 7.684-6.316-2.522 2.515 6.313zm18.437-3.59a18.3 18.3 0 0 0 -7.23-3.774l1.2 6.169zm-16.678-3.738a18.277 18.277 0 0 0 -7.094 3.744l6.019 2.4zm-6.475 13.144-6.763 1.306a18.377 18.377 0 0 0 .027 6.548l6.744 1.174zm20.709 10.02-7.9-3.984 4 7.9zm-10.985-3.977-7.905 3.979 3.923 3.918zm1.538-.026-4.234 8.383h8.472zm-17.688 3.273a18.252 18.252 0 0 0 3.748 7.081l2.411-6.006zm7.353 1.756-2.527 6.3 6.335-2.51zm7.138 11.466a18.461 18.461 0 0 0 6.559-.026l1.178-6.73h-9.049zm-8.673-4.088a18.293 18.293 0 0 0 7.229 3.776l-1.194-6.169zm1.976-9.69 8.4-4.226-8.4-4.227zm.466-9.74 7.905 3.978-3.986-7.889zm14.966-3.911-3.986 7.889 7.905-3.978zm4.372 5.2-8.4 4.227 8.4 4.226zm-14.139-5.665h8.467l-4.232 8.382z"/><path d="m164.251 49.026a3.449 3.449 0 0 1 -.8 1.383 2.466 2.466 0 0 1 -.983.565 5.678 5.678 0 0 1 -1.7.2h-2.337v-8.346h2.3a5.772 5.772 0 0 1 1.885.224 2.835 2.835 0 0 1 1.369 1.232 5.076 5.076 0 0 1 .565 2.635 6.775 6.775 0 0 1 -.292 2.107zm.056-6.548a3.715 3.715 0 0 0 -1.607-.778 9.3 9.3 0 0 0 -1.95-.156h-3.77v10.922h3.959a7.488 7.488 0 0 0 1.759-.189 4.066 4.066 0 0 0 1.307-.547 3.966 3.966 0 0 0 1-.992 5.365 5.365 0 0 0 .754-1.592 7.54 7.54 0 0 0 .292-2.2 7.325 7.325 0 0 0 -.429-2.6 4.464 4.464 0 0 0 -1.315-1.868zm-66.365 5.5 1.2-3.2a13.761 13.761 0 0 0 .59-2.086q.255.885.777 2.258l1.142 3.025zm1.037-6.439-4.2 10.927h1.538l1.2-3.306h4.572l1.276 3.309h1.652l-4.476-10.93zm19.325 0h1.95v10.927h-1.4v-9.139l-3.182 9.144h-1.307l-3.165-9.3v9.3h-1.4v-10.932h2.183l2.591 7.737c.239.719.412 1.259.524 1.617q.189-.6.582-1.75zm9.566-26.174-5.262 20.825h-5.152l-5.245-20.825v20.825h-4.972v-26.455h8.011l4.809 18.046 4.755-18.046h8.028v26.455h-4.972zm5.873 34.9a3.714 3.714 0 0 1 -5.245.124c-.039-.038-.079-.075-.117-.115a4.34 4.34 0 0 1 -1.065-3.11 4.7 4.7 0 0 1 1.111-3.522 3.7 3.7 0 0 1 2.639-1.056 3.591 3.591 0 0 1 1.961.55 3.484 3.484 0 0 1 1.32 1.544 5.615 5.615 0 0 1 .45 2.33 4.625 4.625 0 0 1 -1.054 3.258zm.055-8.2a5.264 5.264 0 0 0 -2.732-.723 4.983 4.983 0 0 0 -3.78 1.54 5.932 5.932 0 0 0 -1.463 4.259 6.134 6.134 0 0 0 .628 2.729 4.786 4.786 0 0 0 1.846 2.034 5.17 5.17 0 0 0 2.764.752 5.441 5.441 0 0 0 2.658-.673 4.59 4.59 0 0 0 1.9-1.987 6.435 6.435 0 0 0 .673-2.975 6.528 6.528 0 0 0 -.646-2.945 4.7 4.7 0 0 0 -1.846-2.008zm-44.069-14.241a5.607 5.607 0 0 1 -1.4 2.556 4.964 4.964 0 0 1 -2.161 1.093 14.685 14.685 0 0 1 -3.235.252h-4v-17.516h2.405a24.21 24.21 0 0 1 4.393.254 5.083 5.083 0 0 1 2.478 1.246 6.06 6.06 0 0 1 1.519 2.561 15.667 15.667 0 0 1 .541 4.7 17.313 17.313 0 0 1 -.54 4.854zm6.075-4.61a19.5 19.5 0 0 0 -.867-6.252 11.579 11.579 0 0 0 -2.532-4.286 8.845 8.845 0 0 0 -4-2.435 19.2 19.2 0 0 0 -5.044-.506h-9.78v26.455h10.072a16.063 16.063 0 0 0 4.738-.565 9.362 9.362 0 0 0 3.761-2.111 11.641 11.641 0 0 0 2.837-4.674 17.283 17.283 0 0 0 .811-5.626zm53.247 18.327h1.389v10.926h-1.485l-5.755-8.585v8.585h-1.389v-10.928h1.489l5.751 8.578zm-68.251 7.487a3.444 3.444 0 0 1 -.8 1.383 2.467 2.467 0 0 1 -.982.564 5.687 5.687 0 0 1 -1.7.2h-2.34v-8.347h2.3a5.775 5.775 0 0 1 1.886.224 2.833 2.833 0 0 1 1.368 1.232 5.075 5.075 0 0 1 .566 2.635 6.742 6.742 0 0 1 -.298 2.109zm.057-6.548a3.708 3.708 0 0 0 -1.607-.78 9.3 9.3 0 0 0 -1.949-.156h-3.771v10.923h3.959a7.429 7.429 0 0 0 1.759-.188 4.066 4.066 0 0 0 1.307-.547 3.931 3.931 0 0 0 .984-.992 5.34 5.34 0 0 0 .754-1.592 7.579 7.579 0 0 0 .293-2.205 7.326 7.326 0 0 0 -.43-2.6 4.47 4.47 0 0 0 -1.3-1.867zm7.447-.941h1.45v10.927h-1.454zm68.558-10.066a14.719 14.719 0 0 1 -3.237.252h-4v-17.516h2.4a24.237 24.237 0 0 1 4.4.254 5.1 5.1 0 0 1 2.478 1.246 5.987 5.987 0 0 1 1.508 2.561 16.127 16.127 0 0 1 .543 4.7 17.207 17.207 0 0 1 -.543 4.843 5.776 5.776 0 0 1 -1.386 2.563 4.977 4.977 0 0 1 -2.163 1.097zm5.984 2.045a11.679 11.679 0 0 0 2.84-4.674 17.363 17.363 0 0 0 .814-5.63 19.469 19.469 0 0 0 -.869-6.252 11.56 11.56 0 0 0 -2.53-4.286 8.879 8.879 0 0 0 -4-2.435 19.206 19.206 0 0 0 -5.046-.506h-9.781v26.455h10.072a16.073 16.073 0 0 0 4.738-.565 9.352 9.352 0 0 0 3.762-2.107z"/></g></svg>