<svg id="Layer_1" data-name="Layer 1" xmlns="http://www.w3.org/2000/svg" viewBox="0 0 1000 1000"><defs><style>.cls-1{fill:#254ca0;}</style></defs><title>DMD_Ver_Reversed_Blue</title><path class="cls-1" d="M832,784.47q14.57-14.13,22.41-37,6.42-18.69,6.42-44.52,0-29.4-6.85-49.44t-20-33.89a70,70,0,0,0-31.54-19.27q-13.69-4-39.81-4h-77.2v209.2H765q23.4,0,37.38-4.42Q821,795.17,832,784.47Zm-47.23-16.12q-7.85,2-25.54,2H727.71V631.78h19q25.83,0,34.67,2a40.15,40.15,0,0,1,19.55,9.85q7.71,7.27,12,20.26t4.28,37.25q0,24.25-4.28,38.31t-11.06,20.19A39.08,39.08,0,0,1,784.79,768.35Zm-541,79.54h11.44V934.3H243.74Zm-60.26,7.43a29.34,29.34,0,0,0-12.68-6.19,72.43,72.43,0,0,0-15.38-1.24H125.66V934.3h31.18a58.9,58.9,0,0,0,13.87-1.47A32.39,32.39,0,0,0,181,928.5a31.31,31.31,0,0,0,7.87-7.85,42.27,42.27,0,0,0,5.89-12.58,60.06,60.06,0,0,0,2.3-17.44,58,58,0,0,0-3.39-20.55A35.13,35.13,0,0,0,183.48,855.32ZM183,907.1A27.19,27.19,0,0,1,176.7,918a19.16,19.16,0,0,1-7.75,4.48q-4.86,1.59-13.41,1.59H137.09v-66h18.16q10.19,0,14.79,1.77,6.36,2.48,10.81,9.75t4.45,20.84A53.26,53.26,0,0,1,183,907.1Zm540.14-59.21h11V934.3H722.4L677,866.4v67.9h-11V847.89h11.73l45.39,67.84ZM302.93,703q0-29.4-6.85-49.44t-20-33.89a70,70,0,0,0-31.54-19.27q-13.68-4-39.81-4H127.56v209.2H207q23.4,0,37.39-4.42,18.68-6,29.68-16.7,14.55-14.13,22.4-37Q302.93,728.82,302.93,703ZM255,739.45q-4.29,14.06-11.06,20.19a39.17,39.17,0,0,1-17.06,8.71q-7.85,2-25.54,2H169.79V631.78h19q25.83,0,34.68,2A40.23,40.23,0,0,1,243,643.63q7.69,7.27,12,20.26t4.27,37.25Q259.26,725.4,255,739.45ZM602.78,852.08a41.36,41.36,0,0,0-21.57-5.72q-18.27,0-29.82,12.17t-11.56,33.69a48.66,48.66,0,0,0,5,21.57,37.93,37.93,0,0,0,14.55,16.09,40.88,40.88,0,0,0,21.81,5.89,42.89,42.89,0,0,0,21-5.33,36.17,36.17,0,0,0,15-15.71,51,51,0,0,0,5.3-23.51,51.8,51.8,0,0,0-5-23.2A37.28,37.28,0,0,0,602.78,852.08Zm-.44,64.83Q594,926,581.09,926A27.6,27.6,0,0,1,560,917q-8.4-9-8.4-24.61,0-19.5,8.76-27.84a29.18,29.18,0,0,1,20.89-8.35,28.34,28.34,0,0,1,15.41,4.33,27.43,27.43,0,0,1,10.44,12.21,44.38,44.38,0,0,1,3.56,18.42Q610.68,907.84,602.34,916.91ZM556,640.92,514.47,805.59H473.79L432.42,640.92V805.59H393.17V596.39h63.22l38,142.7,37.53-142.7h63.35v209.2H556Zm-75.48,207h15.38V934.3h-11V862L459.76,934.3H449.45l-25-73.56V934.3h-11V847.89h17.21l20.45,61.18q2.82,8.55,4.13,12.79,1.45-4.71,4.59-13.84Zm-152.51,0L294.82,934.3H307l9.49-26.17h36.13l10.08,26.17h13l-35.36-86.41Zm-8.25,50.93,9.49-25.34A110.94,110.94,0,0,0,333.89,857q2,7,6.13,17.92l9,23.93Zm525.34-43.5a29.36,29.36,0,0,0-12.67-6.19A72.5,72.5,0,0,0,817,847.89H787.27V934.3h31.18a59,59,0,0,0,13.88-1.47,32.23,32.23,0,0,0,10.31-4.33,31.31,31.31,0,0,0,7.87-7.85,42.28,42.28,0,0,0,5.9-12.58,60.41,60.41,0,0,0,2.3-17.44,58,58,0,0,0-3.39-20.55A35.15,35.15,0,0,0,845.09,855.32Zm-.44,51.78A27.2,27.2,0,0,1,838.31,918a19,19,0,0,1-7.75,4.48q-4.86,1.59-13.41,1.59H798.71v-66h18.15q10.2,0,14.8,1.77,6.36,2.48,10.81,9.75t4.45,20.84A53.55,53.55,0,0,1,844.65,907.1Z"/><path class="cls-1" d="M493.62,516.71c125,0,226.37-101.35,226.37-226.37S618.65,64,493.64,64,267.26,165.33,267.25,290.36,368.6,516.71,493.62,516.71ZM354.08,328.21l48.57,8.48-19,47.52A144.22,144.22,0,0,1,354.08,328.21Zm58,13.89,30,30L392.13,392Zm81.61-39.77,33.42,66.27H460.25Zm-43.6,62.59L419.15,334l62.38-31.46Zm55.74-62.39L568.2,334l-30.93,30.92Zm-.2-12.14L571.88,257v66.84Zm.2-12.14,31.46-62.39,30.93,30.93Zm-12.14.21-33.42-66.27h66.84Zm-12.14-.21-62.38-31.46,30.92-30.92Zm.21,12.14-66.27,33.42V257Zm-81.86,110,47.63-18.95,9.42,48.8A144.32,144.32,0,0,1,399.88,400.43Zm120.26,32.14a146,146,0,0,1-51.78.21L458,379.34h71.39ZM531.49,430,540,381.41l47.51,19A144.31,144.31,0,0,1,531.49,430Zm13.89-58,30-30,19.86,49.92Zm58.33,12.18-18.94-47.63,48.78-9.43A144.21,144.21,0,0,1,603.71,384.19Zm34.56-93.8a145.74,145.74,0,0,1-2.21,25.32L582.63,326V254.64l53.22,9.29A145.92,145.92,0,0,1,638.27,290.39Zm-5-37.82-48.56-8.48,19-47.51A144.14,144.14,0,0,1,633.26,252.57Zm-58-13.89-30-30,49.92-19.85Zm12.18-58.33-47.63,19-9.42-48.79A144.24,144.24,0,0,1,587.47,180.35ZM467.21,148.22A145.78,145.78,0,0,1,519,148l10.32,53.43H457.92Zm-11.36,2.58-8.48,48.57-47.51-19A144.3,144.3,0,0,1,455.85,150.8Zm-13.89,58-30,30-19.85-49.91ZM383.63,196.6l18.95,47.62-48.79,9.43A144.36,144.36,0,0,1,383.63,196.6Zm-32.34,68.48,53.43-10.32v71.39l-53.22-9.3a145.95,145.95,0,0,1-.21-51.77Z"/></svg>