<svg id="Layer_1" data-name="Layer 1" xmlns="http://www.w3.org/2000/svg" viewBox="0 0 1000 412.72"><defs><style>.cls-1{fill:#254ca0;}</style></defs><title>DMD_Hor_Reversed_Blue</title><path class="cls-1" d="M928.25,213.87q9.78-9.5,15.06-24.84,4.32-12.56,4.32-29.92,0-19.76-4.61-33.23A61.56,61.56,0,0,0,929.6,103.1a47.07,47.07,0,0,0-21.2-12.94q-9.2-2.68-26.76-2.69H829.76v140.6h53.42q15.72,0,25.13-3Q920.87,221.07,928.25,213.87ZM896.51,203q-5.28,1.34-17.17,1.34H858.15V111.25H870.9q17.36,0,23.31,1.35a27,27,0,0,1,13.14,6.62q5.17,4.89,8,13.61t2.88,25q0,16.29-2.88,25.74T908,197.19A26.32,26.32,0,0,1,896.51,203ZM532.88,256.5h7.69v58.07h-7.69Zm-39.5,5a19.68,19.68,0,0,0-8.52-4.16,48.79,48.79,0,0,0-10.34-.83h-20v58.07h21a39.56,39.56,0,0,0,9.33-1,21.48,21.48,0,0,0,6.93-2.91A21,21,0,0,0,497,305.4a28.43,28.43,0,0,0,4-8.46,40.48,40.48,0,0,0,1.55-11.72,38.94,38.94,0,0,0-2.28-13.81A23.71,23.71,0,0,0,493.38,261.49Zm-.3,34.8a18.35,18.35,0,0,1-4.26,7.35,13,13,0,0,1-5.21,3,30.17,30.17,0,0,1-9,1.07H462.2V263.35h12.2q6.86,0,10,1.19a15,15,0,0,1,7.26,6.55q3,4.91,3,14A35.85,35.85,0,0,1,493.08,296.29Zm362-39.79h7.37v58.07h-7.88l-30.5-45.63v45.63h-7.37V256.5h7.88l30.5,45.59ZM572.66,159.11q0-19.76-4.6-33.23a61.58,61.58,0,0,0-13.43-22.78,47,47,0,0,0-21.2-12.94q-9.2-2.68-26.75-2.69H454.79v140.6h53.42q15.74,0,25.13-3,12.55-4,19.95-11.22,9.78-9.5,15.05-24.84Q572.66,176.48,572.66,159.11Zm-32.22,24.5q-2.88,9.45-7.44,13.58A26.21,26.21,0,0,1,521.54,203q-5.26,1.34-17.16,1.34h-21.2V111.25h12.76q17.35,0,23.3,1.35a26.91,26.91,0,0,1,13.14,6.62q5.18,4.89,8.06,13.61t2.87,25Q543.31,174.16,540.44,183.61Zm233.74,75.7a27.78,27.78,0,0,0-14.49-3.84q-12.29,0-20.05,8.18t-7.76,22.64a32.79,32.79,0,0,0,3.33,14.5A25.43,25.43,0,0,0,745,311.6a27.46,27.46,0,0,0,14.66,4,28.87,28.87,0,0,0,14.1-3.58,24.34,24.34,0,0,0,10.1-10.56,34.2,34.2,0,0,0,3.57-15.81A34.77,34.77,0,0,0,784,270,25,25,0,0,0,774.18,259.31Zm-.29,43.58a19.68,19.68,0,0,1-28.44.05q-5.66-6-5.65-16.53,0-13.11,5.89-18.72a19.63,19.63,0,0,1,14-5.61A19,19,0,0,1,770.09,265a18.52,18.52,0,0,1,7,8.21,29.85,29.85,0,0,1,2.39,12.38Q779.49,296.79,773.89,302.89Zm-31.15-185.5L714.83,228.07H687.5L659.68,117.39V228.07H633.31V87.47H675.8l25.51,95.91,25.22-95.91h42.58v140.6H742.74ZM692,256.5h10.34v58.07h-7.41V266l-16.88,48.6h-6.93l-16.79-49.44v49.44h-7.41V256.5H658.5l13.74,41.12c1.27,3.82,2.19,6.69,2.78,8.59q1-3.16,3.09-9.3Zm-102.5,0-22.3,58.07h8.16L581.75,297H606l6.77,17.59h8.76L597.79,256.5ZM584,290.72l6.38-17a73.8,73.8,0,0,0,3.13-11.09q1.35,4.71,4.12,12l6.06,16.08ZM936,261.49a19.68,19.68,0,0,0-8.52-4.16,48.86,48.86,0,0,0-10.34-.83h-20v58.07h21a39.62,39.62,0,0,0,9.33-1,21.48,21.48,0,0,0,6.93-2.91,21,21,0,0,0,5.29-5.27,28.43,28.43,0,0,0,4-8.46,40.48,40.48,0,0,0,1.55-11.72,38.94,38.94,0,0,0-2.28-13.81A23.71,23.71,0,0,0,936,261.49Zm-.3,34.8a18.35,18.35,0,0,1-4.26,7.35,13,13,0,0,1-5.21,3,30.17,30.17,0,0,1-9,1.07h-12.4V263.35h12.2q6.86,0,10,1.19a15,15,0,0,1,7.26,6.55q3,4.91,3,14A36.16,36.16,0,0,1,935.74,296.29Z"/><path class="cls-1" d="M378.82,197.83q0-5.91-.44-11.7a152.34,152.34,0,1,0,.44,11.7Zm-58.36-25.38-32.64-5.7,12.77-31.93A96.75,96.75,0,0,1,320.46,172.45Zm-39-9.33L261.35,143l33.55-13.34Zm-54.85,26.73-22.46-44.54h44.92ZM256,147.78l20.79,20.79-41.93,21.14Zm-37.46,41.93-41.93-21.14,20.79-20.79Zm.14,8.16-44.54,22.46V175.41Zm-.14,8.16L197.34,248l-20.78-20.78Zm8.16-.14,22.46,44.54H204.19Zm8.16.14,41.93,21.14L256,248Zm-.14-8.16,44.54-22.46v44.92Zm55-73.95-32,12.73-6.34-32.79A96.84,96.84,0,0,1,289.69,123.92Zm-80.83-21.6a97.82,97.82,0,0,1,34.8-.14l6.94,35.91h-48Zm-7.63,1.74-5.7,32.63L163.6,123.93A96.82,96.82,0,0,1,201.23,104.06Zm-9.33,39-20.16,20.15L158.4,129.62Zm-39.21-8.19,12.74,32-32.79,6.34A97.07,97.07,0,0,1,152.69,134.83Zm-23.22,63a97.3,97.3,0,0,1,1.49-17l35.91-6.94v48l-35.77-6.24A97.39,97.39,0,0,1,129.47,197.87Zm3.36,25.42,32.64,5.7-12.76,31.93A97,97,0,0,1,132.83,223.29Zm39,9.33L192,252.78,158.4,266.12Zm-8.19,39.21,32-12.74L202,291.88A97,97,0,0,1,163.61,271.83Zm80.82,21.59a97.81,97.81,0,0,1-34.79.14l-6.94-35.91h48Zm7.64-1.73,5.7-32.65,31.93,12.78A97.15,97.15,0,0,1,252.07,291.69Zm9.33-39,20.15-20.15,13.35,33.55Zm39.21,8.19-12.74-32,32.79-6.34A97.07,97.07,0,0,1,300.61,260.91Zm21.73-46-35.91,6.94v-48l35.77,6.25a97.81,97.81,0,0,1,.14,34.79Z"/></svg>